# Object Export From Tinkercad Server 2015

mtllib obj.mtl

o obj_0
v 7.9972 		-19.997 		23
v 7.9972 		-44 		23
v 3.002 		-4 		23
v 3.002 		-37.336 		23
v 3.002 		-44 		23
v 9 		-4 		23
v 9 		-19.997 		23
v 9 		-44 		13
v 9 		-4 		13
v 3.002 		-4 		13
v -9 		-44 		13
v -9 		-4 		13
v -4.997 		-44 		13.998
v -8.003 		-44 		13.998
v 4.998 		-4 		18.003
v 4.998 		-44 		18.003
v 4.998 		-44 		13.998
v 4.998 		-4 		13.998
v 4.998 		-44 		22.003
v 8.003 		-44 		22.003
v 4.998 		-4 		22.003
v 4.998 		-44 		18.998
v 4.998 		-4 		18.998
v 8.003 		-44 		18.003
v 8.003 		-4 		18.003
v 8.003 		-4 		13.998
v 8.003 		-44 		13.998
v 9 		-19.997 		21.9973
v -4.997 		-44 		18.998
v 8.003 		-4 		22.003
v 8.003 		-4 		18.998
v -8.003 		-44 		18.998
v 8.003 		-44 		18.998
v -8.003 		-44 		18.003
v -4.997 		-44 		18.003
v 9 		-44 		21.9973
v -9 		-4 		23
v -9 		-19.997 		21.8553
v -7.8552 		-44 		23
v -9 		-19.997 		23
v -8.003 		-44 		22.003
v -4.997 		-44 		22.003
v -9 		-44 		21.8553
v -3.002 		-4 		23
v -3.002 		-37.336 		23
v -3.002 		-37.336 		15.998
v -3.002 		-4 		15.998
v -4.997 		-4 		18.003
v -4.997 		-4 		13.998
v -4.997 		-4 		22.003
v -8.003 		-4 		13.998
v -4.997 		-4 		18.998
v -7.8552 		-19.997 		23
v 3.002 		-37.336 		15.998
v 3.002 		-4 		15.998
v -8.003 		-4 		18.003
v -8.003 		-4 		18.998
v -8.003 		-4 		22.003
# 58 vertices

g group_0_16448250

usemtl color_16448250
s 0

f 3 	4 	1
f 2 	1 	4
f 2 	4 	5
f 7 	6 	1
f 3 	1 	6
f 13 	14 	11
f 12 	10 	11
f 15 	16 	17
f 15 	17 	18
f 21 	19 	22
f 21 	22 	23
f 24 	25 	26
f 24 	26 	27
f 7 	28 	6
f 11 	10 	8
f 20 	30 	31
f 20 	31 	33
f 29 	32 	34
f 29 	34 	35
f 9 	8 	10
f 36 	8 	28
f 8 	9 	28
f 6 	28 	9
f 28 	7 	1
f 37 	38 	40
f 41 	42 	39
f 14 	34 	11
f 43 	11 	34
f 34 	32 	43
f 32 	41 	43
f 39 	43 	41
f 36 	28 	2
f 17 	16 	35
f 35 	13 	17
f 11 	8 	13
f 42 	29 	5
f 38 	43 	39
f 17 	13 	8
f 27 	17 	8
f 37 	12 	38
f 12 	11 	38
f 43 	38 	11
f 44 	45 	46
f 44 	46 	47
f 5 	4 	45
f 5 	45 	39
f 20 	2 	19
f 35 	48 	49
f 35 	49 	13
f 13 	49 	51
f 13 	51 	14
f 42 	50 	52
f 42 	52 	29
f 33 	22 	16
f 33 	16 	24
f 54 	4 	3
f 54 	3 	55
f 53 	39 	45
f 39 	42 	5
f 29 	35 	16
f 16 	22 	29
f 5 	29 	22
f 5 	22 	19
f 5 	19 	2
f 27 	26 	18
f 27 	18 	17
f 44 	37 	53
f 40 	53 	37
f 48 	35 	34
f 48 	34 	56
f 25 	24 	16
f 25 	16 	15
f 12 	49 	10
f 47 	10 	49
f 49 	48 	47
f 48 	52 	47
f 44 	47 	52
f 44 	52 	50
f 36 	2 	20
f 36 	20 	33
f 36 	33 	24
f 27 	8 	24
f 36 	24 	8
f 29 	52 	57
f 29 	57 	32
f 33 	31 	23
f 33 	23 	22
f 47 	55 	10
f 51 	49 	12
f 57 	52 	48
f 57 	48 	56
f 18 	26 	9
f 58 	37 	50
f 23 	31 	25
f 23 	25 	15
f 44 	53 	45
f 44 	50 	37
f 37 	58 	57
f 37 	57 	56
f 51 	12 	56
f 37 	56 	12
f 30 	20 	19
f 30 	19 	21
f 50 	42 	41
f 50 	41 	58
f 3 	6 	21
f 28 	1 	2
f 38 	39 	53
f 3 	21 	23
f 15 	55 	23
f 10 	55 	18
f 9 	10 	18
f 15 	18 	55
f 3 	23 	55
f 56 	34 	14
f 56 	14 	51
f 30 	21 	6
f 58 	41 	32
f 58 	32 	57
f 40 	38 	53
f 26 	25 	9
f 6 	9 	25
f 25 	31 	6
f 30 	6 	31
f 4 	54 	46
f 4 	46 	45
f 46 	54 	55
f 46 	55 	47
# 128 faces

 #end of obj_0

o obj_1
v 9 		3 		30
v 9 		3 		11
v 9 		40 		11
v 9 		40 		25.8078
v 9 		6.4831 		30
v -9 		6.4831 		30
v -9 		40 		25.8078
v -9 		40 		11
v -9 		3 		11
v -9 		3 		30
# 10 vertices

g group_1_16448250

usemtl color_16448250
s 0

f 61 	62 	60
f 62 	63 	60
f 59 	60 	63
f 66 	67 	65
f 64 	65 	67
f 64 	67 	68
f 63 	64 	68
f 63 	68 	59
f 60 	67 	66
f 60 	66 	61
f 63 	62 	65
f 63 	65 	64
f 68 	67 	60
f 68 	60 	59
f 65 	62 	61
f 65 	61 	66
# 16 faces

 #end of obj_1

o obj_2
v 9 		11.195 		13.128
v 9 		10.986 		11.139
v 9 		39.998 		8.0892
v 9 		39.998 		10.1002
v -9 		39.998 		10.1002
v -9 		39.998 		8.0892
v -9 		10.986 		11.139
v -9 		11.195 		13.128
# 8 vertices

g group_2_16448250

usemtl color_16448250
s 0

f 71 	72 	70
f 69 	70 	72
f 73 	74 	75
f 73 	75 	76
f 70 	75 	74
f 70 	74 	71
f 72 	73 	76
f 72 	76 	69
f 72 	71 	74
f 72 	74 	73
f 76 	75 	70
f 76 	70 	69
# 12 faces

 #end of obj_2

o obj_3
v -5.1066 		36.3862 		15
v -5.1066 		36.3862 		17
v -70.1066 		36.3862 		17
v -70.1066 		40.1963 		15
v -5.1066 		56 		17
v -5.1066 		56 		15
v -70.1066 		40.1963 		17
v -70.1066 		36.3862 		15
v -14.1838 		56 		17
v -14.1838 		56 		15
# 10 vertices

g group_3_16448250

usemtl color_16448250
s 0

f 79 	80 	84
f 83 	80 	79
f 85 	86 	80
f 85 	80 	83
f 85 	81 	82
f 85 	82 	86
f 82 	81 	77
f 78 	77 	81
f 82 	77 	86
f 80 	86 	77
f 77 	78 	84
f 79 	84 	78
f 84 	80 	77
f 83 	78 	85
f 81 	85 	78
f 78 	83 	79
# 16 faces

 #end of obj_3

o obj_4
v 5 		36.3862 		15
v 5 		36.3862 		17
v 70 		36.3862 		17
v 70 		40.1963 		15
v 5 		56 		17
v 5 		56 		15
v 70 		40.1963 		17
v 70 		36.3862 		15
v 14.0772 		56 		17
v 14.0772 		56 		15
# 10 vertices

g group_4_16448250

usemtl color_16448250
s 0

f 90 	89 	94
f 90 	93 	89
f 96 	95 	90
f 90 	95 	93
f 91 	95 	92
f 92 	95 	96
f 91 	92 	87
f 87 	88 	91
f 87 	92 	96
f 96 	90 	87
f 88 	87 	94
f 94 	89 	88
f 90 	94 	87
f 88 	93 	95
f 95 	91 	88
f 93 	88 	89
# 16 faces

 #end of obj_4

o obj_5
v 20 		45.25 		20.9148
v 20 		80 		17
v 20 		45.25 		13.0852
v 30 		45.25 		17
# 4 vertices

g group_5_16448250

usemtl color_16448250
s 0

f 97 	98 	99
f 98 	97 	100
f 100 	99 	98
f 97 	99 	100
# 4 faces

 #end of obj_5

o obj_6
v 9 		40 		25.8
v 9 		40 		8.3
v 9 		45 		25.8
v 9 		45 		8.3
v -9 		45 		25.8
v -9 		45 		8.3
v -9 		40 		25.8
v -9 		40 		8.3
# 8 vertices

g group_6_16448250

usemtl color_16448250
s 0

f 101 	102 	103
f 102 	104 	103
f 105 	106 	107
f 106 	108 	107
f 105 	107 	103
f 107 	101 	103
f 108 	106 	102
f 106 	104 	102
f 107 	108 	101
f 108 	102 	101
f 103 	104 	105
f 104 	106 	105
# 12 faces

 #end of obj_6

o obj_7
v 9.003 		48.6813 		8.5214
v 19.699 		80.3143 		16.998
v 29.9953 		45 		16.998
v 9.003 		45 		8.0647
v 9.003 		80.3143 		16.998
v 9.003 		45 		16.998
# 6 vertices

g group_7_16448250

usemtl color_16448250
s 0

f 109 	110 	111
f 109 	111 	112
f 110 	109 	113
f 114 	113 	109
f 114 	109 	112
f 111 	114 	112
f 113 	114 	110
f 111 	110 	114
# 8 faces

 #end of obj_7

o obj_8
v -9 		48.367 		8.5214
v -19.696 		80 		16.998
v -29.9923 		44.6858 		16.998
v -9 		44.6858 		8.0647
v -9 		80 		16.998
v -9 		44.6858 		16.998
# 6 vertices

g group_8_16448250

usemtl color_16448250
s 0

f 116 	115 	117
f 117 	115 	118
f 115 	116 	119
f 119 	120 	115
f 115 	120 	118
f 120 	117 	118
f 120 	119 	116
f 116 	117 	120
# 8 faces

 #end of obj_8

o obj_9
v -19.997 		45 		20.9148
v -19.997 		79.6858 		17
v -19.997 		45 		13.0852
v -29.997 		45 		17
# 4 vertices

g group_9_16448250

usemtl color_16448250
s 0

f 122 	121 	123
f 121 	122 	124
f 123 	124 	122
f 123 	121 	124
# 4 faces

 #end of obj_9

o obj_10
v -9 		51 		22.75
v -9 		44 		22.75
v -9 		44 		17
v -9 		51 		17
v -20 		44 		20.389
v -18.7814 		44 		19.8369
v -10.2198 		44 		21.314
v -20 		51 		20.389
v -20 		51 		17
v -20 		44 		17
v -10.2198 		44 		17.7174
v -18.7814 		44 		17.7174
v -10.2198 		51 		21.314
v -18.7814 		51 		19.8369
v -10.2198 		51 		17.7174
v -18.7814 		51 		17.7174
# 16 vertices

g group_10_2829873

usemtl color_2829873
s 0

f 125 	126 	127
f 125 	127 	128
f 129 	132 	133
f 129 	133 	134
f 130 	131 	129
f 134 	135 	136
f 130 	129 	136
f 129 	134 	136
f 128 	134 	133
f 129 	131 	126
f 135 	127 	131
f 134 	127 	135
f 126 	131 	127
f 138 	132 	137
f 128 	139 	137
f 128 	137 	125
f 127 	134 	128
f 129 	125 	132
f 128 	133 	139
f 140 	139 	133
f 135 	139 	140
f 135 	140 	136
f 138 	130 	136
f 138 	136 	140
f 125 	137 	132
f 132 	138 	140
f 132 	140 	133
f 126 	125 	129
f 131 	137 	139
f 131 	139 	135
f 130 	138 	137
f 130 	137 	131
# 32 faces

 #end of obj_10

o obj_11
v 9 		51 		22.75
v 9 		44 		22.75
v 9 		44 		16.75
v 9 		51 		16.75
v 20 		44 		20.2863
v 18.7814 		44 		19.7102
v 10.2198 		44 		21.2516
v 20 		51 		20.2863
v 20 		51 		16.75
v 20 		44 		16.75
v 10.2198 		44 		17.4986
v 18.7814 		44 		17.4986
v 10.2198 		51 		21.2516
v 18.7814 		51 		19.7102
v 10.2198 		51 		17.4986
v 18.7814 		51 		17.4986
# 16 vertices

g group_11_2829873

usemtl color_2829873
s 0

f 142 	141 	143
f 143 	141 	144
f 148 	145 	149
f 149 	145 	150
f 147 	146 	145
f 151 	150 	152
f 145 	146 	152
f 150 	145 	152
f 150 	144 	149
f 147 	145 	142
f 143 	151 	147
f 143 	150 	151
f 147 	142 	143
f 148 	154 	153
f 155 	144 	153
f 153 	144 	141
f 150 	143 	144
f 141 	145 	148
f 149 	144 	155
f 155 	156 	149
f 155 	151 	156
f 156 	151 	152
f 146 	154 	152
f 152 	154 	156
f 153 	141 	148
f 154 	148 	156
f 156 	148 	149
f 141 	142 	145
f 153 	147 	155
f 155 	147 	151
f 154 	146 	153
f 153 	146 	147
# 32 faces

 #end of obj_11

o obj_12
v 2 		-28 		13
v 2 		-28 		10
v 2 		-14 		13
v 2 		-14 		10
v -2 		-14 		13
v -2 		-14 		10
v -2 		-28 		13
v -2 		-28 		10
# 8 vertices

g group_12_15277357

usemtl color_15277357
s 0

f 157 	158 	159
f 158 	160 	159
f 161 	162 	163
f 162 	164 	163
f 161 	163 	159
f 163 	157 	159
f 164 	162 	158
f 162 	160 	158
f 163 	164 	157
f 164 	158 	157
f 159 	160 	161
f 160 	162 	161
# 12 faces

 #end of obj_12

o obj_13
v 5 		-35 		15
v 5 		-35 		9.9742
v 5 		12 		9.9742
v 5 		12 		15
v -5 		12 		15
v -5 		12 		9.8589
v -5 		-35 		9.8589
v -5 		-35 		15
v 2.956 		12 		8
v 2.956 		-35 		8
v -3.0284 		-35 		8
v -3.0284 		12 		8
v 3.003 		-35 		8.998
v -3.003 		-35 		8.998
v -3.003 		-35 		13.003
v 3.003 		-35 		13.003
v -3.003 		-10.998 		8.998
v -3.003 		-10.998 		13.003
v 3.003 		-10.998 		13.003
v 3.003 		-10.998 		8.998
# 20 vertices

g group_13_16448250

usemtl color_16448250
s 0

f 165 	166 	167
f 165 	167 	168
f 169 	170 	171
f 169 	171 	172
f 165 	168 	169
f 165 	169 	172
f 173 	174 	175
f 173 	175 	176
f 177 	178 	174
f 175 	178 	171
f 178 	179 	171
f 172 	171 	179
f 174 	178 	175
f 177 	166 	180
f 174 	166 	177
f 165 	180 	166
f 172 	179 	180
f 172 	180 	165
f 181 	182 	179
f 181 	179 	178
f 176 	175 	171
f 176 	171 	170
f 168 	170 	169
f 168 	173 	176
f 176 	170 	168
f 183 	182 	181
f 183 	181 	184
f 180 	183 	184
f 180 	184 	177
f 173 	167 	166
f 173 	166 	174
f 173 	168 	167
f 177 	184 	181
f 177 	181 	178
f 182 	183 	180
f 182 	180 	179
# 36 faces

 #end of obj_13

o obj_14
v 9 		45 		25.7
v 9 		45 		8.2447
v 9 		89.9996 		17.088
v 9 		46.1743 		25.7
v -9 		46.1743 		25.7
v -9 		89.9996 		17.088
v -9 		45 		8.2447
v -9 		45 		25.7
v -2.999 		59.998 		22.9835
v -2.999 		59.998 		22.7536
v -7.003 		48.998 		22.7536
v -7.003 		59.998 		22.9835
v -7.003 		59.998 		22.7536
v -7.003 		86.2075 		17.8332
v 1.002 		59.998 		22.9835
v 1.002 		59.998 		22.7536
v 0 		58.998 		22.7536
v 0.998 		59.998 		22.7536
v 4.001 		58.998 		23.18
v -7.003 		48.998 		17.8332
v 3.003 		59.998 		22.9835
v 3.003 		59.998 		22.7536
v -7.001 		59.998 		22.7536
v -6.002 		58.998 		22.7536
v 7.001 		59.998 		22.9835
v 7.003 		86.2075 		17.8332
v 6.002 		58.998 		23.18
v -0.998 		59.998 		22.9835
v 7.003 		59.998 		22.9835
v 0 		58.998 		23.18
v 7.003 		59.998 		22.7536
v -0.998 		59.998 		22.7536
v -5 		59.998 		22.7536
v -4.001 		58.998 		22.7536
v 5 		59.998 		22.9835
v 7.001 		59.998 		22.7536
v 5.004 		59.998 		22.9835
v 6.002 		58.998 		22.7536
v 2.999 		59.998 		22.9835
v 2.001 		58.998 		23.18
v -2.001 		58.998 		22.7536
v -1.002 		59.998 		22.7536
v -2.001 		58.998 		23.18
v -1.002 		59.998 		22.9835
v 2.001 		58.998 		22.7536
v 5.004 		59.998 		22.7536
v 0.998 		59.998 		22.9835
v 4.001 		58.998 		22.7536
v 5 		59.998 		22.7536
v -3.003 		59.998 		22.7536
v -4.001 		58.998 		23.18
v -3.003 		59.998 		22.9835
v 7.003 		48.998 		17.8332
v 2.999 		59.998 		22.7536
v 7.003 		48.998 		22.7536
v -5.004 		59.998 		22.9835
v -6.002 		58.998 		23.18
v -7.001 		59.998 		22.9835
v -5.004 		59.998 		22.7536
v -5 		59.998 		22.9835
# 60 vertices

g group_14_16448250

usemtl color_16448250
s 0

f 187 	188 	186
f 185 	186 	188
f 189 	190 	191
f 189 	191 	192
f 196 	197 	198
f 223 	224 	203
f 223 	203 	205
f 202 	200 	201
f 229 	201 	200
f 197 	195 	204
f 197 	204 	198
f 205 	206 	223
f 197 	207 	195
f 195 	207 	208
f 198 	210 	187
f 198 	187 	190
f 213 	210 	215
f 237 	215 	210
f 198 	190 	196
f 190 	189 	196
f 185 	189 	192
f 188 	189 	185
f 219 	203 	211
f 219 	211 	221
f 211 	209 	222
f 220 	222 	209
f 212 	214 	201
f 212 	201 	216
f 225 	201 	195
f 227 	228 	225
f 226 	225 	228
f 224 	214 	188
f 222 	220 	239
f 215 	239 	220
f 239 	201 	229
f 210 	213 	187
f 188 	187 	213
f 213 	209 	188
f 188 	209 	211
f 203 	224 	188
f 211 	203 	188
f 226 	201 	225
f 216 	201 	226
f 239 	195 	201
f 221 	211 	222
f 221 	222 	230
f 229 	232 	239
f 189 	188 	214
f 213 	215 	220
f 213 	220 	209
f 193 	227 	225
f 193 	225 	194
f 203 	219 	232
f 233 	232 	219
f 227 	189 	214
f 228 	227 	214
f 228 	214 	212
f 235 	236 	218
f 234 	218 	236
f 221 	230 	233
f 221 	233 	219
f 223 	206 	238
f 195 	239 	237
f 195 	237 	204
f 233 	222 	232
f 230 	222 	233
f 239 	232 	222
f 235 	189 	227
f 205 	203 	232
f 205 	232 	206
f 199 	200 	202
f 199 	202 	231
f 224 	223 	229
f 238 	229 	223
f 210 	198 	237
f 212 	216 	226
f 212 	226 	228
f 241 	189 	235
f 238 	232 	229
f 206 	232 	238
f 193 	194 	234
f 193 	234 	236
f 239 	215 	237
f 196 	189 	242
f 241 	242 	189
f 240 	217 	243
f 199 	224 	229
f 199 	229 	200
f 234 	225 	218
f 195 	218 	225
f 194 	225 	234
f 192 	191 	186
f 235 	244 	241
f 240 	241 	244
f 242 	207 	197
f 242 	197 	196
f 192 	186 	185
f 244 	235 	218
f 244 	218 	217
f 236 	235 	193
f 193 	235 	227
f 244 	217 	240
f 191 	190 	187
f 191 	187 	186
f 214 	231 	201
f 202 	201 	231
f 224 	199 	214
f 231 	214 	199
f 198 	204 	237
f 241 	240 	208
f 243 	208 	240
f 243 	217 	208
f 208 	218 	195
f 217 	218 	208
f 242 	241 	208
f 242 	208 	207
# 116 faces

 #end of obj_14

o obj_15
v 7 		47.477 		18.998
v 7 		47.477 		17.998
v 7 		60.4792 		17.998
v 7 		53.3653 		18.998
v 7 		73.4059 		17.998
v 7 		67.998 		18.814
v -7 		67.998 		18.814
v -7 		73.4059 		17.998
v -7 		68.044 		18.998
v -7 		67.7193 		17.998
v -7 		67.8599 		18.998
v 7 		52.725 		19.088
v 7 		68.044 		18.998
v 5.836 		60.4792 		17.998
v -7 		53.3653 		18.998
v -7 		47.477 		18.998
v 5.836 		67.579 		17
v 7 		67.8599 		18.998
v 7 		67.579 		17
v -7 		68.275 		21.951
v 7 		67.7193 		17.998
v 7 		53.421 		24.039
v -7 		67.579 		17
v -7 		60.4792 		17.998
v 7 		68.275 		21.951
v -5.836 		58.231 		22.355
v -7 		52.725 		19.088
v 5.836 		58.231 		22.355
v 5.836 		57.7592 		18.998
v -7 		53.421 		24.039
v -5.836 		57.7592 		18.998
v 5.836 		68.1361 		20.963
v -7 		47.477 		17.998
v -5.836 		60.4792 		17.998
v -5.836 		68.1361 		20.963
v -5.836 		67.8599 		18.998
v -5.836 		67.7193 		17.998
v -5.836 		67.579 		17
v 5.836 		67.8599 		18.998
v 5.836 		67.7193 		17.998
# 40 vertices

g group_15_2829873

usemtl color_2829873
s 0

f 247 	248 	246
f 245 	246 	248
f 252 	254 	251
f 254 	268 	251
f 253 	251 	255
f 247 	258 	261
f 247 	261 	263
f 257 	262 	250
f 262 	247 	250
f 249 	250 	265
f 259 	260 	248
f 248 	260 	245
f 266 	256 	248
f 266 	248 	247
f 263 	265 	247
f 265 	250 	247
f 262 	269 	247
f 266 	247 	269
f 270 	272 	273
f 270 	273 	275
f 255 	251 	268
f 267 	268 	254
f 264 	255 	268
f 259 	274 	268
f 271 	274 	259
f 264 	268 	274
f 260 	259 	277
f 268 	277 	259
f 276 	272 	270
f 276 	270 	279
f 268 	278 	277
f 246 	277 	278
f 246 	278 	258
f 246 	258 	247
f 260 	277 	246
f 260 	246 	245
f 269 	264 	274
f 269 	274 	266
f 275 	280 	270
f 279 	270 	280
f 274 	271 	266
f 256 	266 	271
f 248 	256 	271
f 248 	271 	259
f 281 	278 	282
f 283 	273 	272
f 283 	272 	276
f 255 	280 	253
f 257 	253 	280
f 257 	280 	283
f 257 	283 	262
f 282 	278 	268
f 282 	268 	267
f 258 	284 	261
f 280 	255 	279
f 255 	264 	279
f 281 	252 	284
f 254 	252 	281
f 252 	249 	284
f 265 	284 	249
f 254 	281 	282
f 254 	282 	267
f 252 	251 	250
f 252 	250 	249
f 257 	250 	251
f 257 	251 	253
f 283 	276 	262
f 269 	262 	276
f 269 	276 	264
f 264 	276 	279
f 261 	284 	265
f 261 	265 	263
f 275 	273 	283
f 275 	283 	280
f 284 	258 	278
f 284 	278 	281
# 76 faces

 #end of obj_15

o obj_16
v 3.7544 		-49 		23.0072
v 3.6452 		-49 		23.1208
v -3.5715 		-49 		23.1208
v -3.6111 		-49 		23.0797
v -3.7896 		-48.6336 		22.999
v 3.7721 		-48.9643 		22.999
v -5 		-20.003 		22.999
v 5 		-20.003 		22.999
v 5 		-44.51 		22.999
v -5 		-44.2425 		22.999
v -5 		-20.003 		29.9496
v 4.0356 		-23.6039 		29.997
v -3.9619 		-23.6039 		29.997
v 5 		-20.003 		29.997
v -4.9545 		-20.003 		29.997
v 5 		-20.1053 		29.997
# 16 vertices

g group_16_3888547

usemtl color_3888547
s 0

f 290 	285 	289
f 288 	289 	285
f 293 	294 	292
f 290 	289 	293
f 289 	294 	293
f 291 	292 	294
f 287 	288 	286
f 285 	286 	288
f 294 	295 	291
f 291 	295 	292
f 295 	299 	292
f 298 	292 	299
f 297 	299 	295
f 297 	295 	294
f 297 	294 	289
f 288 	287 	289
f 297 	289 	287
f 286 	296 	297
f 286 	297 	287
f 293 	300 	296
f 293 	296 	286
f 285 	290 	286
f 293 	286 	290
f 297 	296 	299
f 300 	299 	296
f 298 	299 	300
f 300 	293 	292
f 300 	292 	298
# 28 faces

 #end of obj_16

o obj_17
v 8.002 		3 		29.003
v 8.002 		-9.1588 		29.003
v 4.998 		-9.1588 		29.003
v 4.998 		3 		29.003
v 8.002 		3 		22.998
v 8.002 		-20 		22.998
v 8.002 		-20 		23.3436
v 4.998 		-7.2489 		30
v 4.998 		-20 		30
v 4.998 		-20 		22.998
v 4.998 		3 		22.998
v 9 		-20 		23.3436
v 9 		-20 		11
v -4.998 		-20 		30
v -4.998 		-20 		22.998
v -8.002 		3 		22.998
v -4.998 		3 		22.998
v -4.998 		3 		29.003
v -8.002 		3 		29.003
v 9 		3 		11
v -8.002 		-20 		22.998
v -8.002 		-20 		23.3436
v -9 		-20 		23.3436
v -9 		-20 		11
v 9 		3 		30
v 9 		-7.2489 		30
v -4.998 		-7.2489 		30
v -9 		3 		11
v -9 		3 		30
v -9 		-7.2489 		30
v -8.002 		-9.1588 		29.003
v -4.998 		-9.1588 		29.003
# 32 vertices

g group_17_16448250

usemtl color_16448250
s 0

f 301 	302 	303
f 301 	303 	304
f 302 	301 	305
f 302 	305 	306
f 302 	306 	307
f 308 	309 	303
f 309 	310 	303
f 310 	311 	303
f 304 	303 	311
f 313 	306 	310
f 312 	307 	306
f 312 	306 	313
f 315 	313 	310
f 314 	315 	310
f 314 	310 	309
f 319 	329 	318
f 313 	324 	320
f 315 	321 	324
f 315 	324 	313
f 322 	323 	321
f 323 	324 	321
f 325 	308 	326
f 308 	325 	327
f 309 	308 	327
f 309 	327 	314
f 328 	320 	324
f 313 	320 	312
f 326 	312 	320
f 326 	320 	325
f 324 	323 	328
f 323 	330 	328
f 329 	328 	330
f 325 	329 	327
f 330 	327 	329
f 328 	329 	316
f 316 	317 	328
f 319 	316 	329
f 325 	318 	329
f 311 	305 	320
f 328 	317 	320
f 325 	301 	304
f 325 	320 	305
f 325 	305 	301
f 311 	320 	317
f 304 	311 	317
f 317 	318 	304
f 325 	304 	318
f 331 	332 	327
f 327 	330 	331
f 330 	323 	331
f 322 	331 	323
f 315 	317 	316
f 315 	316 	321
f 318 	332 	331
f 318 	331 	319
f 322 	321 	331
f 321 	316 	331
f 319 	331 	316
f 314 	327 	332
f 314 	332 	315
f 318 	317 	332
f 317 	315 	332
f 303 	302 	308
f 308 	302 	326
f 312 	326 	302
f 312 	302 	307
f 306 	305 	311
f 306 	311 	310
# 68 faces

 #end of obj_17

o obj_18
v 8.25 		-7.1375 		29.75
v 8.25 		-19.75 		23.3563
v 8.25 		-19.75 		11.5
v 8.25 		3 		11.5
v 8.25 		3 		29.75
v 4.5926 		-7.1375 		29.75
v -8.2 		3 		29.75
v -8.2 		3 		11.5
v -8.2 		-19.75 		11.5
v -8.2 		-19.75 		23.3563
v -8.2 		-7.1375 		29.75
v 4.5926 		-19.75 		29.75
v -4.5426 		-7.1375 		29.75
v -4.5426 		-19.75 		29.75
v 7.3379 		3 		28.7924
v 7.3379 		-9.0266 		28.7924
v 4.5926 		-9.0266 		28.7924
v 4.5926 		3 		28.7924
v 7.3379 		3 		23.0244
v 7.3379 		-19.75 		23.0244
v 7.3379 		-19.75 		23.3563
v 4.5926 		-19.75 		23.0244
v 4.5926 		3 		23.0244
v -4.5426 		-19.75 		23.0244
v -7.2879 		3 		28.7924
v -7.2879 		-19.75 		23.0244
v -7.2879 		3 		23.0244
v -7.2879 		-9.0266 		28.7924
v -4.5426 		-9.0266 		28.7924
v -7.2879 		-19.75 		23.3563
v -4.5426 		3 		23.0244
v -4.5426 		3 		28.7924
# 32 vertices

g group_18_14093196

usemtl color_14093196
s 0

f 335 	336 	334
f 333 	334 	336
f 333 	336 	337
f 337 	338 	333
f 341 	342 	340
f 342 	343 	340
f 339 	340 	343
f 338 	337 	345
f 344 	338 	345
f 344 	345 	346
f 337 	339 	345
f 343 	345 	339
f 347 	348 	349
f 347 	349 	350
f 348 	347 	351
f 348 	351 	352
f 348 	352 	353
f 338 	344 	349
f 344 	354 	349
f 354 	355 	349
f 350 	349 	355
f 335 	352 	354
f 340 	336 	341
f 335 	341 	336
f 334 	353 	352
f 334 	352 	335
f 356 	358 	341
f 335 	354 	356
f 341 	335 	356
f 346 	356 	354
f 346 	354 	344
f 360 	361 	345
f 362 	342 	358
f 342 	341 	358
f 359 	363 	340
f 345 	343 	360
f 343 	342 	360
f 362 	360 	342
f 357 	339 	364
f 356 	363 	359
f 356 	359 	358
f 340 	339 	359
f 357 	359 	339
f 337 	364 	339
f 364 	361 	360
f 364 	360 	357
f 355 	351 	336
f 362 	358 	360
f 358 	359 	360
f 357 	360 	359
f 337 	347 	350
f 346 	345 	361
f 337 	336 	351
f 337 	351 	347
f 364 	363 	361
f 363 	356 	361
f 346 	361 	356
f 340 	363 	355
f 336 	340 	355
f 350 	355 	363
f 363 	364 	350
f 337 	350 	364
f 349 	348 	338
f 338 	348 	333
f 334 	333 	348
f 334 	348 	353
f 352 	351 	355
f 352 	355 	354
# 68 faces

 #end of obj_18

o obj_19
v 4.8592 		-3 		17.8776
v 4.8592 		-43 		17.8776
v 4.8592 		-43 		14.3733
v 4.8592 		-3 		14.3733
v 4.8592 		-3 		21.3776
v 4.8592 		-43 		21.3776
v 4.8592 		-43 		18.7482
v 4.8592 		-3 		18.7482
v 7.7807 		-43 		17.8776
v 7.7807 		-3 		17.8776
v 7.7807 		-3 		14.3733
v 7.7807 		-43 		14.3733
v 7.7807 		-43 		21.3776
v 7.7807 		-3 		21.3776
v 7.7807 		-3 		18.7482
v 7.7807 		-43 		18.7482
v 8.75 		-18.997 		21.3726
v 8.75 		-18.997 		22.25
v 8.75 		-43 		21.3726
v 8.75 		-3 		22.25
v 8.75 		-43 		13.5
v 8.75 		-3 		13.5
v -8.75 		-3 		22.25
v -8.75 		-18.997 		21.2484
v -8.75 		-18.997 		22.25
v -8.75 		-43 		21.2484
v -8.75 		-3 		13.5
v -8.75 		-43 		13.5
v 2.9186 		-36.336 		22.25
v -2.9186 		-36.336 		22.25
v -2.9186 		-43 		22.25
v -7.637 		-18.997 		22.25
v -7.637 		-43 		22.25
v -2.9186 		-3 		22.25
v 7.7751 		-18.997 		22.25
v 7.7751 		-43 		22.25
v 2.9186 		-3 		22.25
v 2.9186 		-3 		13.5
v -2.9186 		-43 		13.5
v -4.8582 		-43 		14.3733
v -7.7807 		-43 		14.3733
v -4.8582 		-43 		18.7482
v -7.7807 		-43 		18.7482
v -7.7807 		-43 		17.8776
v -4.8582 		-43 		17.8776
v -7.7807 		-43 		21.3776
v -4.8582 		-43 		21.3776
v -2.9186 		-3 		16.1233
v 2.9186 		-3 		16.1233
v -4.8582 		-3 		14.3733
v -4.8582 		-3 		17.8776
v -4.8582 		-3 		18.7482
v -4.8582 		-3 		21.3776
v -7.7807 		-3 		14.3733
v -7.7807 		-3 		18.7482
v -7.7807 		-3 		17.8776
v -7.7807 		-3 		21.3776
v -2.9186 		-36.336 		16.1233
v 2.9186 		-36.336 		16.1233
# 59 vertices

g group_19_14093196

usemtl color_14093196
s 0

f 365 	366 	367
f 365 	367 	368
f 369 	370 	371
f 369 	371 	372
f 373 	374 	375
f 373 	375 	376
f 377 	378 	379
f 377 	379 	380
f 383 	381 	400
f 386 	384 	381
f 382 	381 	384
f 383 	385 	381
f 386 	381 	385
f 387 	388 	389
f 387 	391 	388
f 391 	392 	388
f 390 	388 	392
f 395 	393 	394
f 395 	394 	397
f 398 	387 	396
f 389 	396 	387
f 398 	396 	394
f 396 	397 	394
f 382 	384 	399
f 393 	399 	401
f 400 	399 	393
f 400 	393 	395
f 401 	399 	384
f 392 	391 	403
f 402 	403 	391
f 386 	385 	402
f 403 	402 	385
f 404 	405 	392
f 406 	407 	408
f 406 	408 	409
f 410 	411 	397
f 397 	411 	395
f 405 	408 	392
f 390 	392 	408
f 408 	407 	390
f 407 	410 	390
f 397 	390 	410
f 406 	409 	366
f 403 	366 	409
f 404 	403 	409
f 392 	403 	404
f 411 	406 	395
f 403 	385 	367
f 380 	371 	366
f 380 	366 	373
f 377 	400 	370
f 367 	366 	403
f 366 	371 	406
f 395 	406 	371
f 395 	371 	370
f 395 	370 	400
f 383 	400 	377
f 383 	377 	380
f 383 	380 	373
f 376 	385 	373
f 376 	367 	385
f 383 	373 	385
f 412 	413 	402
f 391 	414 	402
f 412 	402 	414
f 414 	415 	412
f 415 	416 	412
f 398 	412 	416
f 398 	416 	417
f 418 	414 	391
f 375 	386 	368
f 419 	416 	415
f 419 	415 	420
f 372 	379 	374
f 372 	374 	365
f 421 	387 	417
f 401 	384 	369
f 398 	417 	387
f 387 	421 	419
f 387 	419 	420
f 418 	391 	420
f 387 	420 	391
f 398 	394 	422
f 398 	422 	412
f 404 	414 	418
f 404 	418 	405
f 415 	409 	408
f 415 	408 	420
f 388 	390 	397
f 406 	416 	419
f 406 	419 	407
f 409 	415 	414
f 409 	414 	404
f 417 	411 	410
f 417 	410 	421
f 411 	417 	416
f 411 	416 	406
f 423 	393 	401
f 423 	401 	413
f 388 	397 	396
f 376 	375 	368
f 376 	368 	367
f 420 	408 	405
f 420 	405 	418
f 374 	373 	366
f 374 	366 	365
f 421 	410 	407
f 421 	407 	419
f 380 	379 	372
f 380 	372 	371
f 389 	388 	396
f 378 	377 	370
f 378 	370 	369
f 399 	381 	382
f 381 	399 	400
f 401 	369 	372
f 365 	368 	413
f 402 	413 	368
f 365 	413 	372
f 401 	372 	413
f 375 	374 	386
f 378 	369 	384
f 402 	368 	386
f 384 	386 	374
f 374 	379 	384
f 378 	384 	379
f 393 	423 	422
f 393 	422 	394
f 422 	423 	413
f 422 	413 	412
# 130 faces

 #end of obj_19

o obj_20
v 9.25 		50.25 		22.25
v 9.25 		45.5 		22.25
v 9.25 		45.5 		17.25
v 9.25 		50.25 		17.25
v 19.75 		45.5 		20.1969
v 19.75 		50.25 		20.1969
v 19.75 		50.25 		17.25
v 19.75 		45.5 		17.25
v 18.5868 		45.5 		19.7169
v 10.4143 		45.5 		21.0013
v 10.4143 		45.5 		17.8738
v 18.5868 		45.5 		17.8738
v 10.4143 		50.25 		21.0013
v 18.5868 		50.25 		19.7169
v 18.5868 		50.25 		17.8738
v 10.4143 		50.25 		17.8738
# 16 vertices

g group_20_14093196

usemtl color_14093196
s 0

f 425 	424 	426
f 426 	424 	427
f 429 	428 	430
f 430 	428 	431
f 431 	427 	430
f 431 	426 	427
f 433 	432 	428
f 434 	431 	435
f 428 	432 	435
f 435 	431 	428
f 428 	425 	433
f 426 	434 	433
f 426 	431 	434
f 433 	425 	426
f 429 	437 	436
f 430 	427 	439
f 439 	438 	430
f 437 	429 	438
f 438 	429 	430
f 439 	427 	436
f 424 	429 	436
f 436 	427 	424
f 439 	434 	438
f 438 	434 	435
f 424 	425 	429
f 429 	425 	428
f 432 	437 	435
f 435 	437 	438
f 437 	432 	436
f 436 	432 	433
f 436 	433 	439
f 439 	433 	434
# 32 faces

 #end of obj_20

o obj_21
v -9.25 		50.25 		22.25
v -9.25 		45.5 		22.25
v -9.25 		45.5 		17.25
v -9.25 		50.25 		17.25
v -19.75 		45.5 		20.1969
v -19.75 		50.25 		20.1969
v -19.75 		50.25 		17.25
v -19.75 		45.5 		17.25
v -18.5868 		45.5 		19.7169
v -10.4143 		45.5 		21.0013
v -10.4143 		45.5 		17.8738
v -18.5868 		45.5 		17.8738
v -10.4143 		50.25 		21.0013
v -18.5868 		50.25 		19.7169
v -18.5868 		50.25 		17.8738
v -10.4143 		50.25 		17.8738
# 16 vertices

g group_21_14093196

usemtl color_14093196
s 0

f 440 	441 	442
f 440 	442 	443
f 444 	445 	446
f 444 	446 	447
f 443 	447 	446
f 442 	447 	443
f 448 	449 	444
f 447 	450 	451
f 448 	444 	451
f 447 	451 	444
f 441 	444 	449
f 450 	442 	449
f 447 	442 	450
f 441 	449 	442
f 453 	445 	452
f 443 	446 	455
f 454 	455 	446
f 445 	453 	454
f 445 	454 	446
f 443 	455 	452
f 445 	440 	452
f 443 	452 	440
f 450 	455 	454
f 450 	454 	451
f 441 	440 	445
f 441 	445 	444
f 453 	448 	451
f 453 	451 	454
f 448 	453 	452
f 448 	452 	449
f 449 	452 	455
f 449 	455 	450
# 32 faces

 #end of obj_21

o obj_22
v -6.75 		66.2917 		18.8039
v -6.75 		71.25 		17.9925
v -6.75 		66.334 		18.9869
v -6.75 		66.0362 		17.9925
v 6.75 		52.2886 		19.0764
v 6.75 		52.8757 		18.9869
v -6.75 		66.1651 		18.9869
v 6.75 		59.3981 		17.9925
v 5.6276 		59.3981 		17.9925
v 5.6276 		65.9076 		17
v -5.6276 		57.3368 		22.3253
v 5.6276 		57.3368 		22.3253
v 5.6276 		56.9043 		18.9869
v -5.6276 		56.9043 		18.9869
v -6.75 		66.5457 		21.9236
v 6.75 		65.9076 		17
v 6.75 		66.334 		18.9869
v -6.75 		52.8757 		18.9869
v 5.6276 		66.4184 		20.941
v -5.6276 		66.4184 		20.941
v -6.75 		65.9076 		17
v -6.75 		47.477 		18.9869
v 6.75 		47.477 		18.9869
v -5.6276 		66.1651 		18.9869
v -6.75 		59.3981 		17.9925
v 5.6276 		66.1651 		18.9869
v 6.75 		66.1651 		18.9869
v 6.75 		71.25 		17.9925
v -5.6276 		66.0362 		17.9925
v -5.6276 		59.3981 		17.9925
v -5.6276 		65.9076 		17
v 6.75 		47.477 		17.9925
v 6.75 		66.0362 		17.9925
v 5.6276 		66.0362 		17.9925
v -6.75 		47.477 		17.9925
v -6.75 		52.2886 		19.0764
v -6.75 		52.9268 		24
v 6.75 		66.2917 		18.8039
v 6.75 		66.5457 		21.9236
v 6.75 		52.9268 		24
# 40 vertices

g group_22_14093196

usemtl color_14093196
s 0

f 457 	459 	456
f 459 	480 	456
f 458 	456 	462
f 466 	467 	468
f 466 	468 	469
f 463 	464 	465
f 463 	465 	471
f 474 	467 	466
f 474 	466 	475
f 473 	477 	461
f 461 	477 	478
f 462 	479 	458
f 472 	458 	479
f 472 	479 	481
f 472 	481 	482
f 469 	479 	466
f 475 	466 	479
f 484 	485 	486
f 484 	457 	489
f 459 	457 	484
f 457 	483 	489
f 488 	489 	483
f 462 	456 	480
f 476 	480 	459
f 470 	462 	480
f 473 	492 	480
f 491 	492 	473
f 470 	480 	492
f 463 	461 	487
f 478 	487 	461
f 481 	468 	467
f 481 	467 	474
f 457 	456 	493
f 457 	493 	483
f 464 	489 	465
f 479 	462 	475
f 462 	470 	475
f 472 	493 	456
f 472 	456 	458
f 480 	485 	490
f 487 	490 	485
f 487 	485 	464
f 487 	464 	463
f 472 	482 	493
f 482 	463 	493
f 483 	493 	488
f 494 	470 	492
f 494 	492 	495
f 492 	491 	495
f 460 	495 	491
f 459 	484 	486
f 459 	486 	476
f 470 	474 	475
f 481 	474 	482
f 494 	482 	474
f 494 	474 	470
f 495 	460 	461
f 495 	461 	463
f 471 	488 	463
f 488 	493 	463
f 482 	494 	463
f 495 	463 	494
f 477 	490 	487
f 477 	487 	478
f 477 	473 	490
f 480 	490 	473
f 461 	460 	491
f 461 	491 	473
f 465 	489 	488
f 465 	488 	471
f 469 	468 	481
f 469 	481 	479
f 486 	485 	480
f 486 	480 	476
f 489 	464 	485
f 489 	485 	484
# 76 faces

 #end of obj_22

o obj_23
v 20.0017 		44.9206 		20.9991
v 17.2694 		50.7492 		21.1398
v 9.058 		60.9448 		22.8693
v 9.0444 		45.1162 		25.7
v 8.998 		45.117 		22.8819
v 17.2694 		44.9693 		21.1398
v 8.998 		57.3716 		22.8819
v 8.6705 		45.1229 		21.5826
v 8.998 		45.117 		21.5657
v 8.998 		64.363 		21.5657
# 10 vertices

g group_23_16448250

usemtl color_16448250
s 0

f 498 	499 	497
f 496 	497 	499
f 500 	501 	499
f 496 	499 	501
f 503 	504 	500
f 503 	500 	499
f 499 	498 	502
f 500 	504 	502
f 505 	502 	504
f 505 	503 	502
f 499 	502 	503
f 501 	497 	496
f 505 	504 	503
f 498 	497 	502
f 500 	502 	497
f 500 	497 	501
# 16 faces

 #end of obj_23

o obj_24
v -19.9951 		45.1706 		20.9991
v -17.2628 		50.9992 		21.1428
v -9.0514 		61.1948 		22.9091
v -9.0378 		45.3662 		25.8
v -8.9914 		45.367 		22.922
v -17.2628 		45.2193 		21.1428
v -8.9914 		57.6216 		22.922
v -8.6639 		45.3729 		21.595
v -8.9914 		45.367 		21.5778
v -8.9914 		64.613 		21.5778
# 10 vertices

g group_24_16448250

usemtl color_16448250
s 0

f 509 	508 	507
f 507 	506 	509
f 511 	510 	509
f 509 	506 	511
f 514 	513 	510
f 510 	513 	509
f 508 	509 	512
f 514 	510 	512
f 512 	515 	514
f 513 	515 	512
f 512 	509 	513
f 507 	511 	506
f 514 	515 	513
f 507 	508 	512
f 512 	510 	507
f 507 	510 	511
# 16 faces

 #end of obj_24

o obj_25
v -10.9913 		-33.0949 		16.2255
v -10.9886 		-33.0951 		16.2242
v -10.9886 		-40 		17.0011
v -30 		40 		17.0011
v -10.9913 		40 		8.0013
v -10.9886 		-32.898 		17.8001
v -10.9913 		-32.8982 		17.7988
v -10.9913 		40 		26
v -10.9877 		-32.8981 		17.7997
v -10.9877 		-39.3775 		17.0707
v -10.9877 		-33.0951 		16.2247
v -10.9877 		-39.3775 		16.9315
v -9.1 		-20.1 		17.8362
v -10.8711 		-39.5052 		17.0011
v -10.9877 		-20.1 		17.8362
v -10.9877 		-39.3775 		17.8362
v -9.5047 		-41 		17.8362
v -9.1 		-41 		17.8362
v -10.9877 		-39.3775 		15.3772
v -9.1 		-41 		15.3772
v -9.5047 		-41 		15.3772
v -10.9877 		-20.1 		15.3772
v -9.1 		-20.1 		15.3772
# 23 vertices

g group_25_16448250

usemtl color_16448250
s 0

f 518 	516 	517
f 519 	520 	516
f 519 	516 	518
f 521 	522 	518
f 523 	519 	522
f 518 	522 	519
f 518 	525 	521
f 524 	521 	525
f 517 	516 	522
f 517 	522 	521
f 517 	521 	524
f 517 	524 	526
f 516 	520 	522
f 523 	522 	520
f 526 	527 	517
f 518 	517 	527
f 525 	531 	524
f 523 	520 	519
f 532 	531 	529
f 532 	528 	531
f 533 	528 	532
f 530 	531 	528
f 527 	534 	529
f 527 	526 	534
f 537 	538 	534
f 536 	534 	538
f 535 	536 	538
f 530 	524 	531
f 518 	529 	525
f 536 	535 	532
f 535 	533 	532
f 518 	527 	529
f 528 	538 	537
f 528 	537 	530
f 534 	536 	529
f 532 	529 	536
f 537 	534 	526
f 525 	529 	531
f 526 	524 	537
f 530 	537 	524
f 533 	535 	538
f 533 	538 	528
# 42 faces

 #end of obj_25

o obj_26
v -8.8124 		40 		25.5
v -29 		40 		16.75
v -8.8124 		-40 		16.75
v -8.5614 		40 		25.3912
v -8.5614 		-32.9122 		17.4164
v -8.5614 		-33.0813 		16.1021
v -8.002 		-36.7885 		16.75
v -8.5614 		40 		8.1088
v -8.8124 		40 		8
v -8.002 		-32.9439 		17.1705
v -8.002 		-33.0506 		16.3412
# 11 vertices

g group_26_14093196

usemtl color_14093196
s 0

f 539 	540 	541
f 544 	546 	543
f 542 	543 	546
f 546 	544 	547
f 541 	547 	544
f 547 	540 	539
f 542 	546 	539
f 547 	539 	546
f 544 	543 	548
f 544 	548 	549
f 545 	548 	543
f 545 	543 	541
f 548 	545 	549
f 540 	547 	541
f 542 	539 	543
f 541 	543 	539
f 549 	545 	544
f 541 	544 	545
# 18 faces

 #end of obj_26

o obj_27
v 11.2567 		-39.68 		16.8151
v 11.2567 		-32.9008 		17.5608
v 11.3017 		-32.898 		17.5824
v 11.3044 		-32.8982 		17.5811
v 11.3044 		-33.0949 		16.0427
v 11.3017 		-33.0951 		16.0415
v 11.2567 		-33.0924 		16.0624
v 11.3044 		40 		8.0013
v 11.3044 		40 		25.6
v 11.2321 		-39.7022 		16.8011
v 11.2567 		-39.68 		15.2133
v 11.2567 		-24 		15.2133
v 9.4 		-24 		15.2133
v 9.4 		-41 		15.2133
v 11.3017 		-40 		16.8011
v 9.7978 		-41 		15.2133
v 11.2567 		-24 		17.6177
v 30 		40 		16.8011
v 9.4 		-41 		17.6177
v 11.2567 		-39.68 		17.6177
v 9.7978 		-41 		17.6177
v 11.2567 		-39.68 		16.7871
v 9.4 		-24 		17.6177
# 23 vertices

g group_27_16448250

usemtl color_16448250
s 0

f 566 	569 	551
f 554 	555 	553
f 552 	553 	555
f 556 	551 	555
f 552 	555 	551
f 557 	554 	553
f 557 	553 	558
f 550 	569 	559
f 552 	551 	550
f 552 	550 	564
f 560 	559 	565
f 550 	559 	564
f 555 	554 	564
f 557 	567 	554
f 564 	554 	567
f 568 	570 	572
f 566 	572 	569
f 570 	569 	572
f 563 	562 	565
f 565 	562 	560
f 556 	561 	551
f 566 	551 	561
f 571 	560 	556
f 561 	556 	560
f 550 	551 	569
f 570 	565 	559
f 571 	559 	560
f 570 	559 	569
f 572 	562 	563
f 563 	568 	572
f 565 	570 	568
f 565 	568 	563
f 564 	553 	552
f 567 	558 	553
f 567 	553 	564
f 561 	560 	562
f 564 	571 	555
f 556 	555 	571
f 559 	571 	564
f 567 	557 	558
f 562 	572 	561
f 566 	561 	572
# 42 faces

 #end of obj_27

o obj_28
v 8.8153 		-33.095 		15.9966
v 8.8153 		40 		8.0013
v 29 		40 		16.7506
v 8.8153 		-32.8982 		17.5262
v 8.8124 		-32.898 		17.5275
v 8.8124 		-40 		16.7506
v 8.002 		-36.7885 		16.7506
v 8.002 		-33.0506 		16.3418
v 8.8124 		-33.0951 		15.9954
v 8.8153 		40 		25.5
v 8.002 		-32.9439 		17.1712
# 11 vertices

g group_28_14093196

usemtl color_14093196
s 0

f 574 	575 	573
f 578 	573 	575
f 578 	576 	577
f 579 	580 	581
f 579 	581 	578
f 574 	573 	576
f 574 	576 	582
f 575 	574 	582
f 573 	581 	576
f 577 	576 	581
f 580 	583 	581
f 577 	581 	583
f 580 	579 	583
f 575 	582 	576
f 575 	576 	578
f 577 	583 	579
f 577 	579 	578
f 573 	578 	581
# 18 faces

 #end of obj_28

o obj_29
v 11.1042 		40 		8.2967
v 11.1042 		45 		8.2967
v 30 		40 		17.0473
v 6.8958 		45 		8.2967
v 6.8958 		40 		8.2967
v 0 		40 		11.4901
v 0 		45 		11.4901
v 30 		45 		17.0473
v -30 		45 		17.0473
v -30 		40 		17.0473
v 6.8958 		40 		25.798
v 6.8958 		45 		25.798
v 0 		45 		22.6046
v 0 		40 		22.6046
v 11.1042 		45 		25.798
v 11.1042 		40 		25.798
v -6.8958 		40 		8.2967
v -6.8958 		45 		8.2967
v -11.1042 		40 		25.798
v -11.1042 		45 		25.798
v -6.8958 		45 		25.798
v -6.8958 		40 		25.798
v -11.1042 		45 		8.2967
v -11.1042 		40 		8.2967
# 24 vertices

g group_29_16448250

usemtl color_16448250
s 0

f 587 	588 	589
f 587 	589 	590
f 586 	584 	585
f 586 	585 	591
f 593 	603 	592
f 584 	599 	588
f 586 	599 	584
f 594 	595 	596
f 594 	596 	597
f 590 	595 	587
f 585 	584 	588
f 585 	588 	587
f 591 	598 	586
f 599 	586 	598
f 597 	589 	594
f 589 	588 	594
f 599 	594 	588
f 589 	600 	601
f 589 	601 	590
f 599 	598 	595
f 599 	595 	594
f 602 	603 	593
f 585 	587 	598
f 596 	595 	590
f 598 	587 	595
f 591 	585 	598
f 596 	604 	605
f 596 	605 	597
f 605 	604 	603
f 605 	603 	602
f 593 	607 	602
f 605 	602 	607
f 605 	607 	600
f 605 	600 	589
f 605 	589 	597
f 606 	607 	593
f 606 	593 	592
f 601 	600 	607
f 601 	607 	606
f 606 	603 	601
f 603 	604 	601
f 590 	601 	604
f 596 	590 	604
f 603 	606 	592
# 44 faces

 #end of obj_29

o obj_30
v 4.6 		-34.1 		15.2
v 4.6 		-34.1 		10.1742
v 4.6 		9.4 		10.1742
v 4.6 		9.4 		15.2
v -4.7 		9.4 		15.2
v -4.7 		9.4 		10.0589
v -4.7 		-34.1 		10.0589
v -4.7 		-34.1 		15.2
v -2.8428 		-11.8854 		9.198
v -2.8428 		-11.8854 		13.203
v -2.8428 		-34.1 		13.203
v -2.8428 		-34.1 		9.198
v -2.8664 		9.4 		8.2
v -2.8664 		-34.1 		8.2
v 2.7428 		-34.1 		13.203
v 2.7428 		-11.8854 		13.203
v 2.7428 		-11.8854 		9.198
v 2.7428 		-34.1 		9.198
v 2.6991 		-34.1 		8.2
v 2.6991 		9.4 		8.2
# 20 vertices

g group_30_14093196

usemtl color_14093196
s 0

f 608 	609 	610
f 608 	610 	611
f 612 	613 	614
f 612 	614 	615
f 608 	612 	615
f 616 	617 	618
f 616 	618 	619
f 620 	621 	614
f 620 	614 	613
f 622 	623 	624
f 622 	624 	625
f 627 	610 	609
f 625 	619 	626
f 625 	626 	609
f 626 	619 	621
f 622 	608 	618
f 615 	618 	608
f 621 	619 	614
f 619 	618 	614
f 615 	614 	618
f 625 	609 	622
f 608 	622 	609
f 613 	612 	620
f 627 	620 	612
f 627 	612 	610
f 611 	610 	612
f 623 	617 	616
f 623 	616 	624
f 625 	624 	616
f 625 	616 	619
f 626 	627 	609
f 617 	623 	622
f 617 	622 	618
f 611 	612 	608
f 621 	620 	626
f 627 	626 	620
# 36 faces

 #end of obj_30

o obj_31
v 70 		31.7341 		15
v 70 		34.0923 		17
v 70 		40 		15
v 70 		40 		17
v 5 		40 		17
v 5 		40 		15
v 5 		-3.076 		15
v 5 		-3.076 		17
v 8.002 		-3.076 		15
v 27.8246 		5.4562 		15
v 9.4663 		-40 		15
v 8.002 		-3.076 		17
v 27.998 		5.8855 		15.3374
v 8.002 		-40 		17
v 27.8246 		5.4562 		15.0652
v 8.002 		-40 		15
v 9.4663 		-40 		17
v 39.1956 		12.5135 		15.0244
v 30.0349 		9.1185 		17
v 27.998 		5.8855 		17
v 45.9712 		16.7188 		15
v 27.998 		7.8457 		17
# 22 vertices

g group_31_16448250

usemtl color_16448250
s 0

f 628 	630 	629
f 629 	630 	631
f 632 	633 	634
f 632 	634 	635
f 639 	636 	643
f 645 	640 	642
f 641 	639 	643
f 637 	642 	638
f 647 	644 	642
f 649 	646 	632
f 638 	644 	643
f 641 	643 	644
f 630 	633 	631
f 640 	647 	642
f 631 	633 	632
f 644 	639 	641
f 638 	642 	644
f 629 	646 	648
f 645 	648 	646
f 646 	629 	632
f 631 	632 	629
f 645 	646 	640
f 649 	640 	646
f 628 	629 	648
f 640 	649 	647
f 638 	636 	637
f 636 	638 	643
f 636 	639 	635
f 636 	635 	634
f 648 	645 	637
f 642 	637 	645
f 639 	632 	635
f 630 	628 	633
f 648 	633 	628
f 648 	637 	633
f 636 	634 	633
f 637 	636 	633
f 639 	649 	632
f 647 	649 	639
f 644 	647 	639
# 40 faces

 #end of obj_31

o obj_32
v -5.107 		40 		17
v -5.107 		40 		15
v -70.107 		40 		15
v -70.107 		40 		17
v -30.015 		9.1185 		17
v -8.002 		-3.076 		17
v -28.104 		7.9244 		17
v -70.107 		34.1716 		17
v -5.107 		-3.076 		17
v -8.002 		-3.076 		15
v -5.107 		-3.076 		15
v -28.104 		5.8853 		17
v -28.104 		5.8853 		15.2706
v -27.9317 		5.4586 		15
v -9.5733 		-40 		17
v -8.002 		-40 		17
v -9.5733 		-40 		15
v -8.002 		-40 		15
v -70.107 		31.8134 		15
v -39.2889 		12.5555 		15
# 20 vertices

g group_32_16448250

usemtl color_16448250
s 0

f 650 	651 	653
f 653 	651 	652
f 653 	652 	657
f 656 	650 	654
f 653 	657 	650
f 658 	655 	659
f 658 	659 	660
f 658 	650 	655
f 663 	661 	662
f 661 	656 	662
f 654 	650 	657
f 666 	663 	659
f 650 	660 	651
f 650 	658 	660
f 663 	662 	669
f 668 	651 	669
f 667 	666 	659
f 656 	654 	662
f 666 	664 	663
f 661 	663 	664
f 668 	657 	652
f 669 	662 	654
f 669 	651 	663
f 660 	659 	651
f 668 	652 	651
f 656 	661 	655
f 664 	655 	661
f 665 	655 	664
f 654 	657 	669
f 669 	657 	668
f 663 	651 	659
f 667 	665 	666
f 664 	666 	665
f 656 	655 	650
f 665 	667 	655
f 659 	655 	667
# 36 faces

 #end of obj_32

o obj_33
v 14.0398 		20.0313 		11.2654
v 13.1322 		18.8896 		13.22
v 14.1125 		32.6381 		11.8133
v 14.9212 		32.3949 		10.0004
v 19.1276 		32.5112 		14.0677
v 19.9364 		32.268 		12.2547
v 18.1474 		18.7627 		15.4744
v 19.0549 		19.9044 		13.5198
v 18.7144 		22.1613 		13.0652
v 14.6998 		22.2629 		11.2605
v 14.6502 		21.567 		11.3317
v 18.6648 		21.4654 		13.1364
v 17.9056 		22.4045 		14.8781
v 17.856 		21.7086 		14.9493
v 13.8414 		21.8101 		13.1447
v 13.891 		22.506 		13.0735
# 16 vertices

g group_33_16448250

usemtl color_16448250
s 0

f 670 	671 	672
f 670 	672 	673
f 676 	677 	674
f 675 	674 	677
f 679 	673 	678
f 680 	670 	679
f 670 	680 	681
f 678 	677 	681
f 675 	677 	678
f 670 	681 	677
f 683 	676 	682
f 676 	674 	682
f 675 	678 	673
f 673 	679 	670
f 674 	672 	682
f 671 	684 	685
f 685 	682 	672
f 671 	685 	672
f 683 	684 	671
f 683 	671 	676
f 684 	680 	679
f 684 	679 	685
f 674 	675 	672
f 673 	672 	675
f 670 	677 	671
f 678 	682 	685
f 678 	685 	679
f 676 	671 	677
f 680 	684 	683
f 680 	683 	681
f 682 	678 	681
f 682 	681 	683
# 32 faces

 #end of obj_33

o obj_34
v 14.5071 		20.9873 		11.6215
v 14.1027 		21.1089 		12.5279
v 14.6058 		22.3722 		11.4798
v 14.2014 		22.4938 		12.3862
v 18.6179 		22.2707 		13.2833
v 18.2135 		22.3922 		14.1897
v 18.5192 		20.8858 		13.425
v 18.1148 		21.0073 		14.3314
# 8 vertices

g group_34_14093196

usemtl color_14093196
s 0

f 686 	687 	688
f 687 	689 	688
f 690 	691 	692
f 691 	693 	692
f 690 	692 	688
f 692 	686 	688
f 693 	691 	687
f 691 	689 	687
f 692 	693 	686
f 693 	687 	686
f 688 	689 	690
f 689 	691 	690
# 12 faces

 #end of obj_34

o obj_35
v -13.9384 		19.925 		11.6215
v -13.5341 		20.0466 		12.5279
v -14.0372 		21.3099 		11.4798
v -13.6328 		21.4314 		12.3862
v -18.0493 		21.2084 		13.2833
v -17.6449 		21.3299 		14.1897
v -17.9506 		19.8235 		13.425
v -17.5462 		19.945 		14.3314
# 8 vertices

g group_35_14093196

usemtl color_14093196
s 0

f 695 	694 	696
f 697 	695 	696
f 699 	698 	700
f 701 	699 	700
f 700 	698 	696
f 694 	700 	696
f 699 	701 	695
f 697 	699 	695
f 701 	700 	694
f 695 	701 	694
f 697 	696 	698
f 699 	697 	698
# 12 faces

 #end of obj_35

o obj_36
v -13.4711 		18.969 		11.2654
v -12.5636 		17.8273 		13.22
v -13.5438 		31.5758 		11.8133
v -14.3526 		31.3326 		10.0004
v -18.559 		31.4489 		14.0677
v -19.3678 		31.2057 		12.2547
v -17.5788 		17.7004 		15.4744
v -18.4863 		18.8421 		13.5198
v -18.1458 		21.099 		13.0652
v -14.1312 		21.2006 		11.2605
v -14.0815 		20.5047 		11.3317
v -18.0962 		20.4031 		13.1364
v -17.337 		21.3422 		14.8781
v -17.2874 		20.6462 		14.9493
v -13.2728 		20.7478 		13.1447
v -13.3224 		21.4437 		13.0735
# 16 vertices

g group_36_16448250

usemtl color_16448250
s 0

f 703 	702 	704
f 704 	702 	705
f 709 	708 	706
f 706 	707 	709
f 705 	711 	710
f 702 	712 	711
f 712 	702 	713
f 709 	710 	713
f 709 	707 	710
f 713 	702 	709
f 708 	715 	714
f 706 	708 	714
f 710 	707 	705
f 711 	705 	702
f 704 	706 	714
f 716 	703 	717
f 714 	717 	704
f 717 	703 	704
f 716 	715 	703
f 703 	715 	708
f 712 	716 	711
f 711 	716 	717
f 707 	706 	704
f 704 	705 	707
f 709 	702 	703
f 714 	710 	717
f 717 	710 	711
f 703 	708 	709
f 716 	712 	715
f 715 	712 	713
f 710 	714 	713
f 713 	714 	715
# 32 faces

 #end of obj_36

o obj_37
v 5 		-49.0994 		23
v 5 		-49.4322 		22.9188
v 5 		-49.4322 		13
v 5 		-34 		13
v 5 		-34 		23
v -5 		-34 		23
v -5 		-34 		13
v -5 		-49.3183 		13
v -5 		-49.3183 		22.9466
v -5 		-49.0994 		23
v 2.6378 		-66.2387 		13
v -2.6551 		-66.0013 		13
v -1.0688 		-77.288 		15.4623
v 1.0848 		-77.288 		15.4411
v 1.0848 		-77.288 		16.1242
v -1.0688 		-77.288 		16.1242
# 16 vertices

g group_37_16448250

usemtl color_16448250
s 0

f 718 	719 	720
f 718 	720 	721
f 718 	721 	722
f 726 	727 	725
f 724 	725 	727
f 723 	724 	727
f 722 	723 	727
f 722 	727 	718
f 720 	728 	729
f 720 	729 	725
f 724 	721 	725
f 720 	725 	721
f 722 	721 	724
f 722 	724 	723
f 730 	731 	732
f 730 	732 	733
f 727 	726 	718
f 719 	718 	726
f 732 	719 	726
f 732 	726 	733
f 731 	730 	729
f 731 	729 	728
f 726 	725 	729
f 730 	733 	729
f 726 	729 	733
f 732 	728 	719
f 731 	728 	732
f 720 	719 	728
# 28 faces

 #end of obj_37

